<?xml version="1.0" encoding="utf-8"?><svg xmlns="http://www.w3.org/2000/svg" xmlns:xlink="http://www.w3.org/1999/xlink"><symbol viewBox="0 0 129 129" id="down-arrow" xmlns="http://www.w3.org/2000/svg"><path d="M121.3 34.6c-1.6-1.6-4.2-1.6-5.8 0l-51 51.1-51.1-51.1c-1.6-1.6-4.2-1.6-5.8 0-1.6 1.6-1.6 4.2 0 5.8l53.9 53.9c.8.8 1.8 1.2 2.9 1.2 1 0 2.1-.4 2.9-1.2l53.9-53.9c1.7-1.6 1.7-4.2.1-5.8z"/></symbol><symbol viewBox="0 0 133.333 133.333" id="drive-icon" xmlns="http://www.w3.org/2000/svg"><defs><clipPath id="ba"><path d="M0 100h100V0H0z"/></clipPath></defs><g clip-path="url(#ba)" transform="matrix(1.33333 0 0 -1.33333 0 133.333)"><path d="M50 54.344a7.915 7.915 0 1 0 0-15.83 7.915 7.915 0 0 0 0 15.83"/><path d="M85.326 27.598c-1.848-2.36-4.619-5.253-7.095-4.13-5.61 2.554 1.568 21.153 7.141 22.962 3.082.997 5.093 0 6.103-1.84a41.55 41.55 0 0 0-6.149-16.992M64.898 11.223a4.328 4.328 0 0 1-.749-.601A41.741 41.741 0 0 0 50 8.162a41.72 41.72 0 0 0-15.918 3.144c-5.617 3.789-3.066 7.099-.28 11.909 2.805 4.847 15.688 3.316 15.688 3.316s12.965 1.53 15.771-3.316c2.807-4.847 5.42-8.168-.363-11.992M20.902 23.469c-1.285-.584-2.652-.082-3.928.864-4.667 5.997-7.744 13.29-8.578 21.258 1.131 1.159 2.91 1.637 5.371.839 5.573-1.81 12.748-20.408 7.135-22.961m40.067 22.96c0-6.06-4.91-10.97-10.969-10.97-6.059 0-10.969 4.91-10.969 10.97 0 6.058 4.911 10.969 10.97 10.969 6.056 0 10.968-4.912 10.968-10.968M50 91.837c17.871 0 33.115-11.21 39.11-26.977-.064-2.236-.672-4.801-2.994-5.485-9.949-3.827-18.259 4.4-36.626 4.656-18.368-.255-26.595-8.483-36.543-4.656-1.653.487-2.425 1.927-2.748 3.523C15.637 79.688 31.396 91.837 50 91.837M50 100C22.386 100 0 77.614 0 50 0 22.387 22.386 0 50 0c27.613 0 50 22.387 50 50 0 27.614-22.387 50-50 50"/></g></symbol><symbol viewBox="0 0 129 129" id="top-arrow" xmlns="http://www.w3.org/2000/svg"><path d="M121.3 34.6c-1.6-1.6-4.2-1.6-5.8 0l-51 51.1-51.1-51.1c-1.6-1.6-4.2-1.6-5.8 0-1.6 1.6-1.6 4.2 0 5.8l53.9 53.9c.8.8 1.8 1.2 2.9 1.2 1 0 2.1-.4 2.9-1.2l53.9-53.9c1.7-1.6 1.7-4.2.1-5.8z"/></symbol></svg>