<svg version="1" xmlns="http://www.w3.org/2000/svg" width="682.667" height="682.667" viewBox="0 0 512.000000 512.000000"><path d="M218.5 171.6c-33.8 2.5-49.2 4.9-61.7 9.5-19.2 7-31 14.5-36.4 23.1-3.2 5-10 22.7-24.4 63l-11.3 31.6-11.6.4c-10.7.3-11.9.5-15.8 3-5.4 3.5-6.7 5.6-10.9 16.9-3.6 9.7-4.1 13.3-2.3 17.2 1.7 3.7 5 4.7 15.9 4.7 5.5 0 10 .1 10 .3 0 .2-1.2 3.7-2.7 7.8l-2.8 7.4-.3 71.3c-.3 70.9-.3 71.4 1.8 75.7 1.6 3.2 3.3 4.9 6.4 6.4 4 2 6 2.1 34.7 2.1 27.7 0 30.7-.2 33.9-1.9 6.9-3.7 7.5-5.3 7.8-24.2l.3-16.9h213.8l.3 16.9c.3 18.9.9 20.5 7.8 24.2 3.2 1.7 6.2 1.9 33.9 1.9 28.7 0 30.7-.1 34.7-2.1 3.1-1.5 4.8-3.2 6.4-6.4 2.1-4.3 2.1-4.8 1.8-75.7l-.3-71.3-2.7-7.4c-1.6-4.1-2.8-7.6-2.8-7.8 0-.2 4.5-.3 10-.3 10.9 0 14.2-1 15.9-4.7 1.8-3.9 1.3-7.5-2.3-17.2-4.2-11.3-5.5-13.4-10.9-16.8-3.8-2.5-5.3-2.8-16.1-3.3l-11.8-.5-13.3-36.5c-21.4-58.9-22.9-62.1-31.7-68.7-13.2-9.9-37.6-17.1-68.8-20.4-10.1-1-84.3-2.1-94.5-1.3zm88 32.5c30.4 2.5 52.4 7.9 58.4 14.3 3.7 3.9 17.3 41.5 24.7 68.1 2.4 8.7 4.4 16.4 4.4 17.1 0 1.2-14 4.9-29.5 7.9-47.8 9.1-125.9 11-184.8 4.4-24.7-2.7-51.3-7.5-59.9-10.8l-2.7-1 3.5-13.3c7.5-28.4 21.9-68 26.3-72.4 8.1-8.2 33.4-13.6 73.2-15.4 21.3-1 69-.4 86.4 1.1zM118.4 362.5c9.3 3.1 33.7 13.4 41.9 17.8 7.5 3.9 10.7 8 10.7 13.6 0 9.3-4.9 11.8-24.7 12.7-16.2.7-40.6-.8-48.1-3.1-3-.9-7-3.1-9-5l-3.7-3.3-.3-10.9c-.6-16.1 1.6-21.9 9.3-24.3 4.7-1.5 15.2-.4 23.9 2.5zm302.1-1.1c5.3 3.5 6 5.9 6 20.4v13.4l-3.7 3.3c-2 1.9-6 4.1-9 5-7.5 2.3-31.9 3.8-48.1 3.1-19.8-.9-24.7-3.4-24.7-12.7 0-5.6 3.2-9.7 10.7-13.6 12.5-6.7 40.3-17.7 51.8-20.7 3.8-1 14.5.2 17 1.8z"/></svg>