<?xml version="1.0" encoding="UTF-8" standalone="no"?>
<svg
   xmlns:dc="http://purl.org/dc/elements/1.1/"
   xmlns:cc="http://creativecommons.org/ns#"
   xmlns:rdf="http://www.w3.org/1999/02/22-rdf-syntax-ns#"
   xmlns:svg="http://www.w3.org/2000/svg"
   xmlns="http://www.w3.org/2000/svg"
   viewBox="0 0 133.33307 133.33293"
   height="133.33293"
   width="133.33307"
   xml:space="preserve"
   id="svg2"
   version="1.1"><metadata
     id="metadata8"><rdf:RDF><cc:Work
         rdf:about=""><dc:format>image/svg+xml</dc:format><dc:type
           rdf:resource="http://purl.org/dc/dcmitype/StillImage" /></cc:Work></rdf:RDF></metadata><defs
     id="defs6"><clipPath
       id="clipPath18"
       clipPathUnits="userSpaceOnUse"><path
         id="path16"
         d="M 0,100 H 100 V 0 H 0 Z" /></clipPath></defs><g
     transform="matrix(1.3333333,0,0,-1.3333333,-2.6666666e-4,133.33293)"
     id="g10"><g
       id="g12"><g
         clip-path="url(#clipPath18)"
         id="g14"><g
           transform="translate(50,54.3442)"
           id="g20"><path
             id="path22"
             style="fill:#000000;fill-opacity:1;fill-rule:nonzero;stroke:none"
             d="m 0,0 c 4.371,0 7.915,-3.544 7.915,-7.915 0,-4.372 -3.544,-7.915 -7.915,-7.915 -4.371,0 -7.915,3.543 -7.915,7.915 C -7.915,-3.544 -4.371,0 0,0" /></g><g
           transform="translate(85.3262,27.5977)"
           id="g24"><path
             id="path26"
             style="fill:#000000;fill-opacity:1;fill-rule:nonzero;stroke:none"
             d="m 0,0 c -1.848,-2.359 -4.619,-5.253 -7.095,-4.129 -5.611,2.553 1.568,21.152 7.141,22.961 3.082,0.997 5.093,0 6.103,-1.839 C 5.351,10.801 3.2,5.038 0,0 m -20.428,-16.375 c -0.339,-0.225 -0.583,-0.425 -0.749,-0.601 -4.421,-1.589 -9.182,-2.459 -14.149,-2.459 -5.637,0 -11.011,1.123 -15.918,3.143 -5.617,3.789 -3.066,7.099 -0.281,11.909 2.806,4.847 15.689,3.316 15.689,3.316 0,0 12.965,1.53 15.771,-3.316 2.807,-4.847 5.42,-8.168 -0.363,-11.992 m -43.996,12.246 c -1.285,-0.584 -2.652,-0.082 -3.928,0.864 -4.667,5.997 -7.744,13.291 -8.578,21.258 1.131,1.159 2.91,1.637 5.371,0.839 5.573,-1.809 12.748,-20.408 7.135,-22.961 m 40.067,22.961 c 0,-6.06 -4.911,-10.971 -10.969,-10.971 -6.059,0 -10.969,4.911 -10.969,10.971 0,6.057 4.911,10.968 10.969,10.968 6.057,0 10.969,-4.912 10.969,-10.968 m -10.969,45.407 c 17.871,0 33.115,-11.209 39.11,-26.977 C 3.72,35.026 3.112,32.461 0.79,31.777 c -9.949,-3.827 -18.259,4.401 -36.626,4.656 -18.368,-0.255 -26.595,-8.483 -36.543,-4.656 -1.653,0.487 -2.425,1.927 -2.748,3.523 5.438,16.791 21.197,28.939 39.801,28.939 m 0,8.163 c -27.614,0 -50,-22.386 -50,-50 0,-27.613 22.386,-50 50,-50 27.613,0 50,22.387 50,50 0,27.614 -22.387,50 -50,50" /></g></g></g></g></svg>